<svg width="195" height="176" viewBox="0 0 195 176" fill="none" xmlns="http://www.w3.org/2000/svg">
<path d="M23.098 0.297519C26.6722 -0.228852 68.0958 0.0173483 70.0953 0.462553C71.6376 0.80585 72.6632 1.80989 73.6912 2.96665C76.0998 5.67696 78 9.20462 80.0415 12.2225C83.5254 17.3716 87.1985 22.405 90.5215 27.6604L146.125 27.7163C155.161 27.7046 165.045 27.4367 174.033 28.0067C177.578 28.4327 180.608 29.5037 183.494 31.4838C197.116 40.8317 194.795 53.6996 194.792 68.4945L194.795 103.58L194.799 136.981C194.797 148.556 196.683 161.219 186.768 169.397C182.04 173.297 178.303 174.912 172.246 175.689C160.674 176.077 147.789 175.844 136.144 175.849L73.8858 175.863L40.6256 175.873C34.3381 175.875 27.0496 176.159 20.9141 175.432C10.5295 174.046 0.829354 164.646 0.279772 153.992C-0.136094 145.931 0.0339816 137.877 0.0366859 129.86L0.0511057 84.2458L0.0336781 43.3944C0.0327768 41.0238 -0.0222099 38.5945 0.0312757 36.2515C0.247622 26.7562 -1.33622 17.2899 5.36842 9.4962C10.5508 3.47227 15.293 1.04274 23.098 0.297519Z" fill="black"/>
</svg>
