<svg width="23" height="20" viewBox="0 0 23 20" fill="none" xmlns="http://www.w3.org/2000/svg">
<g clip-path="url(#clip0_6_2)">
<path d="M2.65627 0.033618C3.06731 -0.0258589 7.83102 0.00196026 8.06096 0.0522659C8.23833 0.0910565 8.35626 0.204508 8.47448 0.335215C8.75147 0.641464 8.97 1.04007 9.20478 1.38107C9.60542 1.9629 10.0278 2.53164 10.41 3.12547L16.8043 3.13178C17.8435 3.13046 18.9801 3.10019 20.0138 3.1646C20.4215 3.21273 20.77 3.33376 21.1018 3.5575C22.6684 4.61375 22.4015 6.06776 22.401 7.7395L22.4014 11.704L22.4019 15.4781C22.4016 16.786 22.6186 18.2168 21.4783 19.141C20.9346 19.5816 20.5049 19.7641 19.8083 19.8519C18.4775 19.8957 16.9958 19.8694 15.6565 19.8699L8.49687 19.8716L4.67195 19.8727C3.94888 19.8729 3.11071 19.905 2.40512 19.8228C1.21089 19.6663 0.0953757 18.6041 0.0321737 17.4003C-0.0156508 16.4894 0.00390788 15.5793 0.00421888 14.6734L0.00587715 9.5193L0.00387299 4.90332C0.00376933 4.63545 -0.00255414 4.36097 0.0035967 4.09622C0.0284765 3.0233 -0.153665 1.95366 0.617368 1.07302C1.21334 0.392347 1.75869 0.117823 2.65627 0.033618Z" fill="black"/>
<path d="M2.6878 1.11681C2.98087 1.08396 3.96984 1.10668 4.30623 1.10702L7.65741 1.10563C7.71477 1.19827 7.83015 1.37652 7.89885 1.45356C8.50743 2.13644 9.25042 3.7234 9.96492 4.19426C10.7866 4.23026 11.775 4.20553 12.6068 4.20492L17.0781 4.20614C17.922 4.2057 18.8272 4.18264 19.6708 4.21718C19.9493 4.2286 20.3209 4.36844 20.5469 4.52455C20.9125 4.78155 21.16 5.17014 21.2356 5.60567C21.3269 6.1305 21.2957 7.13114 21.2955 7.71114L21.293 11.271L21.2959 15.086C21.2964 15.7714 21.3122 16.4579 21.2731 17.1421C21.2254 17.973 20.6389 18.6345 19.8045 18.7692C19.4094 18.835 18.0937 18.8063 17.6479 18.8056L13.4748 18.805L6.42271 18.8062C5.21573 18.8065 4.0014 18.8255 2.795 18.792C2.32605 18.7782 2.01301 18.6075 1.67454 18.3042C0.917087 17.6252 1.1125 16.2765 1.11222 15.3223L1.11174 11.5085L1.11268 5.83111C1.11295 4.84422 1.10213 3.85845 1.12988 2.87194C1.15745 1.89123 1.67713 1.25784 2.6878 1.11681Z" fill="white"/>
<path d="M8.44181 6.25049C8.68073 6.2298 8.98149 6.23704 9.22609 6.23687C9.41274 6.38442 9.49669 6.49326 9.63434 6.67706C9.92759 6.53806 10.1174 6.49781 10.3649 6.74849C10.7143 7.10219 11.0909 7.438 11.4169 7.8132L11.3042 8.28657C11.439 8.38483 11.5686 8.52576 11.6866 8.64557C11.6951 9.07705 11.7012 9.71696 11.6235 10.1428C11.5561 10.513 11.2535 10.5001 10.9444 10.3917C10.7694 10.1366 10.8742 9.35174 10.901 9.0227C10.5673 8.70513 10.2431 8.36772 9.91335 8.04366C9.58339 7.71941 9.21096 7.39006 8.9071 7.04832C8.65052 7.05001 7.66487 7.10532 7.57465 6.99645C6.91532 6.20093 8.21713 6.26099 8.44181 6.25049Z" fill="black"/>
<path d="M10.1089 11.7371C10.8612 11.6763 10.6909 12.2046 10.3165 12.5754C10.1303 12.7596 9.93786 12.9634 9.752 13.1507L9.75518 15.9084C9.99686 16.1336 10.4917 16.5447 10.6107 16.8193C10.7655 17.1766 10.4674 17.4713 10.0539 17.2806C9.72254 16.9476 9.32482 16.6491 9.04413 16.2735C8.88507 16.0605 8.91267 15.9424 8.94479 15.6958C8.8027 15.5983 8.64568 15.471 8.50749 15.3646C8.50891 14.7933 8.50735 14.222 8.50276 13.6507C9.17302 13.1329 8.89153 13.5763 8.93001 12.9726C8.94372 12.7583 9.87142 11.9331 10.1089 11.7371Z" fill="black"/>
<path d="M15.6381 7.59322C16.3011 7.56679 16.2626 7.88939 16.2673 8.44254C16.2699 8.75583 16.2606 9.07687 16.259 9.3907C16.2052 9.44539 16.0685 9.57792 16.0299 9.63548C15.7822 10.003 16.1916 10.0861 15.7646 10.4875C15.4305 10.8015 15.1179 11.2047 14.7398 11.4767C14.6484 11.5424 14.3044 11.427 14.2008 11.3973C13.8689 11.9209 13.4376 11.7575 12.8705 11.7423C12.6054 11.748 12.3388 11.7857 12.1381 11.5968C11.8807 11.3545 12.0411 10.9936 12.3901 10.9802C12.7542 10.9663 13.1192 10.9864 13.4846 10.9917C13.7584 10.665 14.1606 10.3347 14.4702 10.0328C14.8198 9.69192 15.1497 9.3467 15.4874 8.99461C15.4981 8.57593 15.3184 7.89349 15.6381 7.59322Z" fill="black"/>
<path d="M8.66474 10.7936C8.98787 10.7752 10.0702 10.746 10.2031 10.9437C10.8014 11.8342 9.03334 11.5883 8.85783 11.577C8.63847 11.8486 8.348 12.0814 8.10196 12.3315C7.68644 12.7539 7.26819 13.1738 6.85013 13.5938C6.84809 13.8521 6.85155 14.0186 6.87781 14.275C6.88521 14.3535 6.89125 14.4322 6.89591 14.5109C6.91851 14.9386 6.51108 15.1892 6.25412 14.9245C6.01303 14.6762 6.08255 13.4958 6.09863 13.1828C6.198 13.0613 6.37817 12.9039 6.49784 12.7927C6.34476 12.4411 6.28505 12.3593 6.60396 12.0615C6.95276 11.7359 7.28577 11.3702 7.66266 11.076C7.79591 11.1217 7.95165 11.1904 8.08396 11.2446C8.11454 11.1897 8.14699 11.1357 8.18123 11.0829C8.31113 10.8868 8.44434 10.8399 8.66474 10.7936Z" fill="black"/>
<path d="M7.19561 8.65792C7.71322 8.63798 8.27526 8.64468 8.79314 8.6517C8.93824 8.83104 8.98025 8.89226 9.08959 9.09565C9.4522 9.06939 9.63584 9.03339 9.90034 9.34504C10.0833 9.56052 10.7614 10.1272 10.7223 10.3979C10.5928 11.2952 9.58666 10.1866 9.35631 9.90496L8.53048 9.90409L6.45416 9.90391C6.16469 10.2215 5.2787 11.3494 5.07316 10.3229C5.04787 10.1966 6.09969 9.1753 6.25903 9.06696C6.41694 9.07704 6.57794 9.09852 6.73538 9.11713C6.88082 8.85774 6.89091 8.71896 7.19561 8.65792Z" fill="black"/>
<path d="M10.9107 12.148C11.7638 12.1007 11.4714 12.9446 11.4868 13.594C11.689 13.7663 12.077 14.1877 12.2827 14.3931C12.642 14.7522 13.2142 15.2268 13.5145 15.6106C13.8039 15.5549 14.4367 15.468 14.6905 15.5581C15.0532 15.6869 15.0186 16.1439 14.6304 16.2861C14.1255 16.287 13.6269 16.3246 13.1232 16.3184C13.0354 16.2446 12.9312 16.1397 12.8422 16.0577C12.5753 15.8117 12.3529 16.2111 12.0761 15.9392C11.7202 15.5897 11.361 15.2368 11.0239 14.8743C10.9302 14.7734 11.0864 14.4472 11.0249 14.3291C10.8719 14.1684 10.8027 14.0956 10.6938 13.9157C10.6706 13.5122 10.7044 13.0258 10.7137 12.6167C10.7189 12.3857 10.7418 12.2926 10.9107 12.148Z" fill="black"/>
<path d="M11.9645 5.28566C12.014 5.28081 12.1506 5.27696 12.1852 5.29368C12.5316 5.46114 13.2917 6.22099 13.4504 6.52C13.4446 6.6396 13.4179 6.81429 13.4032 6.9374C13.5814 7.02924 13.667 7.09681 13.8241 7.21525C13.8349 7.79748 13.8368 8.37985 13.8298 8.96217C13.3924 9.29643 13.3953 9.12991 13.4168 9.71008C13.2301 9.976 12.7622 10.3936 12.5093 10.6257C12.4416 10.6868 12.2356 10.8845 12.142 10.8643C11.1574 10.652 12.2881 9.80843 12.5805 9.46269C12.6061 8.58637 12.5934 7.55139 12.5776 6.67085C12.2316 6.29982 11.3501 5.75319 11.9645 5.28566Z" fill="black"/>
<path d="M15.8509 12.7186C16.0489 12.4139 16.7878 11.5753 17.1905 11.9099C17.3899 12.2377 17.0208 12.5978 16.8183 12.8202C16.5967 13.0549 16.3533 13.3177 16.0845 13.4964C15.9167 13.5054 15.7206 13.5059 15.5505 13.5101C15.4585 13.6841 15.414 13.7466 15.2938 13.9017C14.7886 13.9323 14.0779 13.9197 13.5671 13.903L13.3012 13.5162C12.9051 13.511 12.686 13.4764 12.4037 13.177C12.0943 12.8487 11.1969 12.1553 11.9404 11.8009C12.2929 11.838 12.7998 12.4332 13.0367 12.7038C13.9122 12.7412 14.9624 12.7172 15.8509 12.7186Z" fill="black"/>
</g>
<defs>
<clipPath id="clip0_6_2">
<rect width="23" height="20" fill="white"/>
</clipPath>
</defs>
</svg>
